<svg id="74eb5710-4937-4089-8f91-8ddd811889a8" data-name="Layer 1" xmlns="http://www.w3.org/2000/svg" viewBox="0 0 516.38 114.31"><defs><style>.\33 5417545-0de5-46c7-b383-d1b96dbb0cdc{fill:#e22129;}.\32 894bcd0-f407-452a-ae3a-c5570f7b65a7,.\37 eaa277f-1340-4c15-b654-b5a8d31c4a2d{fill:#727272;}.\30 a39b6bd-6915-4aeb-a541-2b24d283fad3{fill:#e41e26;}.\30 a39b6bd-6915-4aeb-a541-2b24d283fad3,.\32 aca6b80-255e-4c97-ba14-c1e06275ff97,.\37 eaa277f-1340-4c15-b654-b5a8d31c4a2d{fill-rule:evenodd;}.\32 aca6b80-255e-4c97-ba14-c1e06275ff97{fill:#e42228;}</style></defs><title>innFactory</title><path class="35417545-0de5-46c7-b383-d1b96dbb0cdc" d="M150.47,54.34a7.52,7.52,0,0,1-5.34-1.94,6.24,6.24,0,0,1-2.08-4.75,6,6,0,0,1,2.08-4.73,8.73,8.73,0,0,1,10.71,0,6,6,0,0,1,2.06,4.73,6.22,6.22,0,0,1-2.06,4.81A7.65,7.65,0,0,1,150.47,54.34Zm6.24,34.22a5.72,5.72,0,0,0,1.26,4,4.39,4.39,0,0,0,3.38,1.37,11.09,11.09,0,0,0,2.12-.2l2.12-.41v9.05a45.92,45.92,0,0,1-4.91,1,36.45,36.45,0,0,1-5.4.39,12.26,12.26,0,0,1-4.67-.86,9.91,9.91,0,0,1-3.59-2.47,11.22,11.22,0,0,1-2.3-3.9,15.21,15.21,0,0,1-.82-5.14V60.94h12.81Z" transform="translate(-18.07 -8.95)"/><path class="35417545-0de5-46c7-b383-d1b96dbb0cdc" d="M211.37,102.71H198.52V79.5q0-9.71-6.93-9.71a6.88,6.88,0,0,0-5.51,2.57,9.79,9.79,0,0,0-2.16,6.53v23.82H171V60.94h12.89v6.61h.16a14.77,14.77,0,0,1,13.42-7.63q13.87,0,13.87,17.21Z" transform="translate(-18.07 -8.95)"/><path class="35417545-0de5-46c7-b383-d1b96dbb0cdc" d="M261.91,102.71H249.06V79.5q0-9.71-6.93-9.71a6.88,6.88,0,0,0-5.51,2.57,9.78,9.78,0,0,0-2.16,6.53v23.82H221.57V60.94h12.89v6.61h.16A14.77,14.77,0,0,1,248,59.92q13.87,0,13.87,17.21Z" transform="translate(-18.07 -8.95)"/><path class="2894bcd0-f407-452a-ae3a-c5570f7b65a7" d="M304,50.42H281.2V70.65h21.13v6.16H281.2v25.9h-6.85V44.22H304Z" transform="translate(-18.07 -8.95)"/><path class="2894bcd0-f407-452a-ae3a-c5570f7b65a7" d="M341,102.71h-6.69V96.18h-.16a14,14,0,0,1-12.85,7.5q-6.24,0-9.77-3.3A11.45,11.45,0,0,1,308,91.62Q308,79.91,321.83,78l12.52-1.75q0-10.65-8.61-10.65a20.56,20.56,0,0,0-13.62,5.14V63.88A25.88,25.88,0,0,1,326.31,60Q341,60,341,75.54Zm-6.69-21.13L324.27,83a16.35,16.35,0,0,0-7,2.31q-2.36,1.65-2.36,5.85a6.37,6.37,0,0,0,2.18,5,8.43,8.43,0,0,0,5.81,1.94,10.74,10.74,0,0,0,8.22-3.49,12.47,12.47,0,0,0,3.24-8.83Z" transform="translate(-18.07 -8.95)"/><path class="2894bcd0-f407-452a-ae3a-c5570f7b65a7" d="M382.11,100.79a21.75,21.75,0,0,1-11.42,2.9q-8.94,0-14.42-5.81T350.79,82.8q0-10.32,5.91-16.58T372.48,60a22,22,0,0,1,9.71,2v6.85a17,17,0,0,0-10-3.26,13.45,13.45,0,0,0-10.5,4.59q-4.1,4.59-4.1,12.05t3.86,11.58a13.28,13.28,0,0,0,10.34,4.24,16.77,16.77,0,0,0,10.28-3.63Z" transform="translate(-18.07 -8.95)"/><path class="2894bcd0-f407-452a-ae3a-c5570f7b65a7" d="M411.6,102.3a12.9,12.9,0,0,1-6.24,1.31q-11,0-11-12.24V66.65h-7.18V60.94h7.18V50.75l6.69-2.16V60.94H411.6v5.71H401.08V90.19q0,4.2,1.43,6T407.24,98a7,7,0,0,0,4.37-1.39Z" transform="translate(-18.07 -8.95)"/><path class="2894bcd0-f407-452a-ae3a-c5570f7b65a7" d="M437.34,103.69q-9.26,0-14.79-5.85T417,82.32q0-10.52,5.75-16.44T438.32,60q9.34,0,14.58,5.75t5.24,15.95q0,10-5.65,16T437.34,103.69Zm.49-38.1A12.72,12.72,0,0,0,427.63,70q-3.75,4.39-3.75,12.09,0,7.42,3.79,11.71a12.89,12.89,0,0,0,10.16,4.28q6.49,0,10-4.2t3.49-12q0-7.83-3.49-12.07T437.83,65.59Z" transform="translate(-18.07 -8.95)"/><path class="2894bcd0-f407-452a-ae3a-c5570f7b65a7" d="M490.61,67.71a8.18,8.18,0,0,0-5.06-1.35q-4.28,0-7.16,4t-2.88,11v21.29h-6.69V60.94h6.69v8.61h.16A14.59,14.59,0,0,1,480,62.68a10,10,0,0,1,6.57-2.47,10.92,10.92,0,0,1,4,.57Z" transform="translate(-18.07 -8.95)"/><path class="2894bcd0-f407-452a-ae3a-c5570f7b65a7" d="M534.46,60.94,515.24,109.4q-5.14,13-14.44,13a15.33,15.33,0,0,1-4.36-.53v-6a12.35,12.35,0,0,0,4,.74q5.06,0,7.59-6l3.34-7.91L495,60.94h7.42l11.3,32.14q.2.61.86,3.18h.25q.2-1,.81-3.1l11.87-32.22Z" transform="translate(-18.07 -8.95)"/><g id="41083976-9055-48eb-a121-8bad8e791adf" data-name="g3518"><path id="50e39a5f-3c20-4705-9bdd-42768e0d0089" data-name="path58241" class="2894bcd0-f407-452a-ae3a-c5570f7b65a7" d="M118.61,9.21a.92.92,0,0,0-.73.88v2.21a16,16,0,0,0-4.62,1.91l-1.56-1.56a.91.91,0,0,0-1.14-.1,21,21,0,0,0-4.36,4.36.91.91,0,0,0,.1,1.14l1.56,1.56a16,16,0,0,0-1.91,4.62h-2.21a.92.92,0,0,0-.88.73,18.87,18.87,0,0,0,0,6.17.92.92,0,0,0,.88.73h2.21a16,16,0,0,0,1.91,4.62L106.3,38a.91.91,0,0,0-.1,1.14,21.07,21.07,0,0,0,4.36,4.36.92.92,0,0,0,1.14-.1l1.56-1.56a16,16,0,0,0,4.62,1.91V46a.92.92,0,0,0,.73.88,18.94,18.94,0,0,0,6.17,0,.92.92,0,0,0,.73-.88V43.79a16,16,0,0,0,4.62-1.91l1.56,1.56a.92.92,0,0,0,1.14.1,21.06,21.06,0,0,0,4.36-4.36.91.91,0,0,0-.1-1.14l-1.56-1.56a16,16,0,0,0,1.91-4.62h2.21a.92.92,0,0,0,.88-.73,18.94,18.94,0,0,0,0-6.17.92.92,0,0,0-.88-.73h-2.21a16,16,0,0,0-1.91-4.62L137.1,18a.91.91,0,0,0,.1-1.14,21,21,0,0,0-4.36-4.36.91.91,0,0,0-1.14.1l-1.56,1.56a16,16,0,0,0-4.62-1.91V10.09a.92.92,0,0,0-.73-.88,18.87,18.87,0,0,0-6.17,0Zm3.09,9.29A9.54,9.54,0,1,1,112.15,28,9.55,9.55,0,0,1,121.7,18.5Z" transform="translate(-18.07 -8.95)"/></g><path class="0a39b6bd-6915-4aeb-a541-2b24d283fad3" d="M23.75,77.31c.22,2,.41,3.65.6,5.25,7.57,1,7.47,1,8.12,2.5,2.44,5.53-4.17,4.91-5.34,8,.64,3.48,2.28,5.58,6.08,3.66,4-2,4.68,1.35,6.27,3.52l-3.92,5.28c18.52-2.15,49.52-10.88,82.08-42.23-.21-.55-.48-1.19-.81-2-2.61-1.19-6,2.49-8.14-1.57-2.59-4.87,3.42-5,4.16-8.23L110,47.34c-7.26,2.56-7.21,2.49-8.3,1.61-4.41-3.61,1.35-6.06,1-9.52-1.16-.9-2.48-1.94-4-3.13-2,1.8-3.9,3.49-5.65,5-3.61-.95-5.28-2.77-3.7-6.37a7.09,7.09,0,0,0,.15-1.09c.58-2.28-.91-2.83-2.64-3.51-2-.77-2.92-.12-3.69,1.63s-1.68,3.15-2.5,4.66l-4.85-1.11c-.46-2.6-.89-5-1.34-7.52H68.86a31.2,31.2,0,0,1-.93,5.52A5.3,5.3,0,0,1,65.5,36c-3.3,1.83-3.76-1.2-4.8-3.06s-1.46-3.72-4.52-2.65c-2.85,1-2.75,2.4-2,4.66a26.14,26.14,0,0,1,.64,4.36l-4.43,2.39-5.9-5.49L40.1,39.75l3.75,7-3.35,3.79c-7.73-3.27-7.73-3.27-10.32,1.48l5.49,5.22c-.76,7.62-6.67,3.09-9.86,4.67-.61,2.43-2.52,5.23,1.57,6.18,3.94.92,5.17,3.11,3.69,7.13Zm47.63-10A8.28,8.28,0,0,1,80,75.46,8.43,8.43,0,0,1,71.71,84a8.63,8.63,0,0,1-8.63-8.21A8.37,8.37,0,0,1,71.38,67.34Z" transform="translate(-18.07 -8.95)"/><path class="7eaa277f-1340-4c15-b654-b5a8d31c4a2d" d="M48.14,113A21.24,21.24,0,0,0,47,116.79L51,118.91c3.53-.9,3.16-6.89,8.38-4.6,4.39,1.92.75,5.57,2.81,8.18l4.69.78c2.78-6.77,2.81-6.58,4.49-6.91,5.83-1.14,3.67,4.93,6.26,6.77l5.19-1v-7.3l5-1.6,4.43,5.43c5.1-2.35,5.24-2.4,3.49-6.84-.76-1.93-.48-3,1.08-4.31s2.85-1.51,4.47-.19a40.09,40.09,0,0,0,3.74,2.41l3.77-4c-4.38-6.56-4.38-6.56-1.16-10.2,6.94,1.94,6.94,1.94,8.63-3.52-6-4.83-6-4.83-4.23-8.92l6.79-1c.21-2,.37-3.67.55-5.45-1.4-.45-3-.68-4.34-1.11C98.09,94.68,75,112.72,48.14,113Z" transform="translate(-18.07 -8.95)"/><path class="7eaa277f-1340-4c15-b654-b5a8d31c4a2d" d="M115.06,75.52s15.53-16.36,30.83-45.29c0,0-20,53.87-54.41,78l11.44-15.89Z" transform="translate(-18.07 -8.95)"/><path class="2aca6b80-255e-4c97-ba14-c1e06275ff97" d="M35.56,105.53a79.37,79.37,0,0,1-17.49.26S50,103.34,71.85,89.57L49.07,101.4Z" transform="translate(-18.07 -8.95)"/></svg>